<svg width="49" height="49" viewBox="0 0 49 49" fill="none" xmlns="http://www.w3.org/2000/svg">
<g id="Group 72">
<g id="MainRectangle 16" filter="url(#filter0_d_298_595)">
<rect x="10" y="5" width="28.2694" height="28.2694" rx="14.1347" fill="url(#paint0_linear_298_595)"/>
</g>
<path id="Vector" d="M26.5263 21.0918L28.2659 22.8315M20.4375 18.4824C20.4375 19.4051 20.8041 20.2901 21.4566 20.9426C22.1091 21.5951 22.994 21.9617 23.9168 21.9617C24.8396 21.9617 25.7246 21.5951 26.3771 20.9426C27.0296 20.2901 27.3961 19.4051 27.3961 18.4824C27.3961 17.5596 27.0296 16.6746 26.3771 16.0221C25.7246 15.3696 24.8396 15.0031 23.9168 15.0031C22.994 15.0031 22.1091 15.3696 21.4566 16.0221C20.8041 16.6746 20.4375 17.5596 20.4375 18.4824Z" stroke="white" stroke-width="1.5" stroke-linecap="round" stroke-linejoin="round"/>
</g>
<defs>
<filter id="filter0_d_298_595" x="0" y="0" width="48.2695" height="48.2694" filterUnits="userSpaceOnUse" color-interpolation-filters="sRGB">
<feFlood flood-opacity="0" result="BackgroundImageFix"/>
<feColorMatrix in="SourceAlpha" type="matrix" values="0 0 0 0 0 0 0 0 0 0 0 0 0 0 0 0 0 0 127 0" result="hardAlpha"/>
<feOffset dy="5"/>
<feGaussianBlur stdDeviation="5"/>
<feComposite in2="hardAlpha" operator="out"/>
<feColorMatrix type="matrix" values="0 0 0 0 0.803922 0 0 0 0 0.101961 0 0 0 0 0.25098 0 0 0 0.22 0"/>
<feBlend mode="normal" in2="BackgroundImageFix" result="effect1_dropShadow_298_595"/>
<feBlend mode="normal" in="SourceGraphic" in2="effect1_dropShadow_298_595" result="shape"/>
</filter>
<linearGradient id="paint0_linear_298_595" x1="6.89037" y1="19.1347" x2="40.955" y2="19.1347" gradientUnits="userSpaceOnUse">
<stop stop-color="#CD1A40"/>
<stop offset="1" stop-color="#FF803C"/>
</linearGradient>
</defs>
</svg>
